# xmcd CD database file
#
# Track frame offsets:
#	150
#	22095
#	47081
#	68159
#	82826
#	105512
#	124536
#	135385
#	156609
#	171539
#
# Disc length: 2654 seconds
#
# Revision: 1
# Processed by: cddbd v1.5.1PL0 Copyright (c) Steve Scherf et al.
# Submitted via: CDex 1.51
#
DISCID=820a5c0a
DTITLE=Chris Rea - Dancing Down The Stony Road, Lim. Edition
DYEAR=2002
DGENRE=Blues
TTITLE0=Chris Rea - Dancing Down The Stony Road CD1 - 01 - Easy Rider
TTITLE1=Chris Rea - Dancing Down The Stony Road CD1 - 02 - Stony Road
TTITLE2=Chris Rea - Dancing Down The Stony Road CD1 - 03 - Dancing The Blues Away
TTITLE3=Chris Rea - Dancing Down The Stony Road CD1 - 04 - Catfish Girl
TTITLE4=Chris Rea - Dancing Down The Stony Road CD1 - 05 - Burning Feet
TTITLE5=Chris Rea - Dancing Down The Stony Road CD1 - 06 - Slow Dance
TTITLE6=Chris Rea - Dancing Down The Stony Road CD1 - 07 - Segway
TTITLE7=Chris Rea - Dancing Down The Stony Road CD1 - 08 - Mississippi
TTITLE8=Chris Rea - Dancing Down The Stony Road CD1 - 09 - So Lonely
TTITLE9=Chris Rea - Dancing Down The Stony Road CD1 - 10 - Heading For The City
EXTD=YEAR: 2002
EXTT0=
EXTT1=
EXTT2=
EXTT3=
EXTT4=
EXTT5=
EXTT6=
EXTT7=
EXTT8=
EXTT9=
PLAYORDER=
